<svg height="512" viewBox="0 0 64 64" width="512" xmlns="http://www.w3.org/2000/svg"><g id="Authorization_manager" data-name="Authorization manager"><g fill="#9bc9ff"><path d="m15.081 34.437a15.99 15.99 0 0 0 -12.081 15.498v11.065h17z"/><path d="m39 59v-16a2 2 0 0 1 2-2h1v-4.29a15.813 15.813 0 0 0 -5.082-2.27l-4.918 26.56h9a2 2 0 0 1 -2-2z"/><path d="m26 59 4-4-1.714-17.171-2.286-1.829-2.286 1.829-1.714 17.171zm2.35-18.78-2.35.78-2.35-.78 2.35.78z"/><path d="m31 40 4-6-4-1-5 3z"/><path d="m26 36-5-3-4 1 4 6z"/><path d="m28.4 14 1.6-2 2.8 3.5a4 4 0 0 0 3.122 1.5h2.078v-4a10 10 0 0 0 -10-10h-4a10 10 0 0 0 -10 10v4h8.155a8 8 0 0 0 6.245-3z"/><path d="m45 41v-8a5 5 0 0 1 10 0v8h3v-8a8 8 0 0 0 -16 0v8z"/><circle cx="50" cy="49" r="2"/></g><path d="m59 40v-7a9 9 0 0 0 -18 0v1.943a16.7 16.7 0 0 0 -4.44-1.631l-4.56-1.093v-2.011a11 11 0 0 0 5-9.208v-3h1a1 1 0 0 0 1-1v-4a11.013 11.013 0 0 0 -11-11h-4a11.013 11.013 0 0 0 -11 11v4a1 1 0 0 0 1 1h1v3a11 11 0 0 0 5 9.208v2.011l-4.562 1.093a17.087 17.087 0 0 0 -13.438 16.623v12.065h57a3 3 0 0 0 3-3v-16a3 3 0 0 0 -3-3zm-16-7a7 7 0 0 1 14 0v7h-1v-7a6 6 0 0 0 -12 0v7h-1zm11 7h-8v-7a4 4 0 0 1 8 0zm-13 0a3 3 0 0 0 -3 3v16a2.966 2.966 0 0 0 .184 1h-4.984l4.5-24.3a14.79 14.79 0 0 1 3.3 1.567zm-15-2.72 1.121.9.15 1.347-1.271.419-1.271-.422.15-1.347zm-1.5 4.277 1.183.392a1 1 0 0 0 .63 0l1.183-.392 1.455 13.076-2.951 2.953-2.953-2.953zm3.246-5.439 3.411-2.047 2.222.555-2.608 3.912zm-12.746-23.118a9.011 9.011 0 0 1 9-9h4a9.011 9.011 0 0 1 9 9v3h-1.077a2.99 2.99 0 0 1 -2.343-1.125l-2.8-3.5a1 1 0 0 0 -1.562 0l-1.6 2a6.966 6.966 0 0 1 -5.463 2.625h-7.155zm2 8v-3h5.155a8.955 8.955 0 0 0 7.028-3.378l.817-1.022 2.018 2.523a4.972 4.972 0 0 0 2.982 1.785v3.092a9 9 0 0 1 -18 0zm9 11a10.927 10.927 0 0 0 4-.764v1.2l-4 2.4-4-2.4v-1.2a10.927 10.927 0 0 0 4 .764zm-5.159 2.071 3.411 2.047-3.025 2.42-2.608-3.912zm-16.841 15.864a15.081 15.081 0 0 1 10.3-14.235l4.5 24.3h-4.8v-11a1 1 0 0 0 -2 0v11h-8zm16.832 10.065-4.6-24.814.308-.066 3.623 5.435a1 1 0 0 0 .679.433.976.976 0 0 0 .158.012 1 1 0 0 0 .625-.219l1.045-.837-1.664 14.945a1 1 0 0 0 .287.818l4 4a1 1 0 0 0 1.414 0l4-4a1 1 0 0 0 .287-.818l-1.664-14.945 1.045.837a1 1 0 0 0 .625.219.976.976 0 0 0 .153-.012 1 1 0 0 0 .679-.433l3.623-5.434.308.066-4.595 24.813zm39.168-1a1 1 0 0 1 -1 1h-18a1 1 0 0 1 -1-1v-16a1 1 0 0 1 1-1h18a1 1 0 0 1 1 1z" fill="#1e81ce"/><path d="m50 46a2.993 2.993 0 0 0 -1 5.816v5.184a1 1 0 0 0 2 0v-5.184a2.993 2.993 0 0 0 -1-5.816zm0 4a1 1 0 1 1 1-1 1 1 0 0 1 -1 1z" fill="#1e81ce"/></g></svg>